<svg version="1.2" xmlns="http://www.w3.org/2000/svg" viewBox="0 0 800 800" width="800" height="800"><style>.a{fill:#ff0084}</style><path fill-rule="evenodd" class="a" d="m503.5 110.2c54 0 98.3 41.1 103.2 93.7l110.9 34c32.9 10.1 55.4 40.5 55.4 74.9 0 28.1-15.2 54.1-39.8 68.1l-187.2 106.1 119.8 119.6h65.6c22.9 0 41.5 18.5 41.5 41.4 0 22.9-18.6 41.4-41.5 41.4h-82.8c-11.1 0-21.5-4.4-29.3-12.2l-143.1-142.7c15.2-46.6 4.1-99.7-32.9-136.7-52.6-52.5-137.6-52.5-190.2-0.1l-95.3 90.5c-8.3 7.9-8.7 20.9-0.8 29.2 7.9 8.3 21 8.6 29.3 0.8l95.5-90.8 0.3-0.2c4.5-4.6 9.5-8.6 14.6-11.9 36.2-23.9 85.4-19.9 117.2 11.9 32 31.9 35.9 81.3 11.7 117.5-3.4 4.9-7.3 9.7-11.7 14.1l-47.9 47.8h116.8c22.9 0 41.4 18.5 41.4 41.4 0 22.9-18.5 41.4-41.4 41.4h-372.9c-45.7 0-82.9-37.1-82.9-82.8 0-215.1 164.5-391.8 374.6-411.8 9-48.2 51.2-84.6 101.9-84.6zm0 134.4c8.3 0 16.2-3.2 22-9.1 5.8-5.8 9.1-13.7 9.1-21.9 0-8.2-3.3-16.1-9.1-21.9-5.8-5.9-13.7-9.1-22-9.1-8.2 0-16.1 3.2-21.9 9.1-5.9 5.8-9.2 13.7-9.2 21.9 0 8.2 3.3 16.1 9.2 21.9 5.8 5.9 13.7 9.1 21.9 9.1z"/></svg>